<svg width="22" height="22" viewBox="0 0 22 22" fill="none" xmlns="http://www.w3.org/2000/svg">
<path d="M3.26564 10.1836H15.8361L8.31232 3.65234C8.19201 3.54707 8.26505 3.35156 8.42404 3.35156H10.3254C10.4092 3.35156 10.4887 3.38164 10.551 3.43535L18.6699 10.4801C18.7443 10.5445 18.8039 10.6242 18.8448 10.7137C18.8857 10.8033 18.9068 10.9005 18.9068 10.9989C18.9068 11.0973 18.8857 11.1946 18.8448 11.2841C18.8039 11.3736 18.7443 11.4533 18.6699 11.5178L10.5037 18.6055C10.4715 18.6334 10.4328 18.6484 10.392 18.6484H8.42619C8.2672 18.6484 8.19416 18.4508 8.31447 18.3477L15.8361 11.8164H3.26564C3.17111 11.8164 3.09376 11.7391 3.09376 11.6445V10.3555C3.09376 10.2609 3.17111 10.1836 3.26564 10.1836Z" fill="#111111"/>
</svg>
