<svg width="40" height="32" viewBox="0 0 40 32" fill="none" xmlns="http://www.w3.org/2000/svg">
<g clip-path="url(#clip0_358_677)">
<path d="M10.7063 6H14V12H6.95625L8.85625 7.25625C9.15625 6.5 9.8875 6 10.7063 6ZM17 12V6H22.075C22.6813 6 23.2563 6.275 23.6375 6.75L27.8375 12H17ZM33.0125 12.0625L26.7625 4.25C25.625 2.825 23.9 2 22.075 2H10.7063C8.25 2 6.04375 3.49375 5.1375 5.76875L2.5375 12.275C1.05 12.8625 0 14.3062 0 16V23C0 24.1063 0.89375 25 2 25H4.08125C4.55625 27.8375 7.025 30 10 30C12.975 30 15.4437 27.8375 15.9187 25H24.0875C24.5625 27.8375 27.0313 30 30.0063 30C32.9813 30 35.45 27.8375 35.925 25H38.0062C39.1125 25 40.0062 24.1063 40.0062 23V20C40.0062 15.925 36.9562 12.5625 33.0187 12.0625H33.0125ZM27.1688 23C27.2961 22.6235 27.4969 22.2761 27.7597 21.9778C28.0224 21.6796 28.3418 21.4366 28.6992 21.2628C29.0567 21.0891 29.4451 20.9881 29.8419 20.9658C30.2387 20.9434 30.636 21.0001 31.0108 21.1326C31.3855 21.2651 31.7301 21.4708 32.0247 21.7376C32.3192 22.0044 32.5579 22.3271 32.7267 22.6869C32.8954 23.0467 32.9911 23.4365 33.0079 23.8336C33.0248 24.2307 32.9626 24.6272 32.825 25C32.6977 25.3765 32.4968 25.7239 32.2341 26.0222C31.9713 26.3204 31.652 26.5634 31.2945 26.7372C30.9371 26.9109 30.5486 27.0119 30.1518 27.0342C29.755 27.0566 29.3577 26.9999 28.983 26.8674C28.6083 26.7349 28.2636 26.5292 27.9691 26.2624C27.6745 25.9956 27.4359 25.6729 27.2671 25.3131C27.0983 24.9533 27.0027 24.5635 26.9858 24.1664C26.9689 23.7693 27.0311 23.3728 27.1688 23ZM10 21C10.7956 21 11.5587 21.3161 12.1213 21.8787C12.6839 22.4413 13 23.2044 13 24C13 24.7956 12.6839 25.5587 12.1213 26.1213C11.5587 26.6839 10.7956 27 10 27C9.20435 27 8.44129 26.6839 7.87868 26.1213C7.31607 25.5587 7 24.7956 7 24C7 23.2044 7.31607 22.4413 7.87868 21.8787C8.44129 21.3161 9.20435 21 10 21Z" fill="#5ff216"/>
</g>
<defs>
<clipPath id="clip0_358_677">
<rect width="40" height="32" fill="white"/>
</clipPath>
</defs>
</svg>
