<svg width="141" height="141" viewBox="0 0 141 141" fill="none" xmlns="http://www.w3.org/2000/svg">
<path d="M15.6667 62.6667L27.4167 27.4167H113.583L125.333 62.6667M113.583 101.833C110.467 101.833 107.478 100.595 105.275 98.3918C103.071 96.1883 101.833 93.1996 101.833 90.0833C101.833 86.967 103.071 83.9784 105.275 81.7748C107.478 79.5713 110.467 78.3333 113.583 78.3333C116.7 78.3333 119.688 79.5713 121.892 81.7748C124.095 83.9784 125.333 86.967 125.333 90.0833C125.333 93.1996 124.095 96.1883 121.892 98.3918C119.688 100.595 116.7 101.833 113.583 101.833ZM27.4167 101.833C24.3004 101.833 21.3117 100.595 19.1082 98.3918C16.9046 96.1883 15.6667 93.1996 15.6667 90.0833C15.6667 86.967 16.9046 83.9784 19.1082 81.7748C21.3117 79.5713 24.3004 78.3333 27.4167 78.3333C30.533 78.3333 33.5216 79.5713 35.7252 81.7748C37.9287 83.9784 39.1667 86.967 39.1667 90.0833C39.1667 93.1996 37.9287 96.1883 35.7252 98.3918C33.5216 100.595 30.533 101.833 27.4167 101.833ZM124.707 23.5C123.14 18.9567 118.753 15.6667 113.583 15.6667H94V0H47V15.6667H27.4167C22.2467 15.6667 17.86 18.9567 16.2933 23.5L0 70.5V133.167C0 135.244 0.825295 137.237 2.29433 138.706C3.76336 140.175 5.7558 141 7.83333 141H15.6667C17.7442 141 19.7366 140.175 21.2057 138.706C22.6747 137.237 23.5 135.244 23.5 133.167V125.333H117.5V133.167C117.5 135.244 118.325 137.237 119.794 138.706C121.263 140.175 123.256 141 125.333 141H133.167C135.244 141 137.237 140.175 138.706 138.706C140.175 137.237 141 135.244 141 133.167V70.5L124.707 23.5Z" fill="#0C9C35"/>
</svg>
