<svg width="24" height="24" viewBox="0 0 24 24" fill="none" xmlns="http://www.w3.org/2000/svg">
<path d="M6.84223 13.984C7.41103 13.9047 7.98855 13.9117 8.55523 14.005C9.84823 14.215 11.0772 14.843 12.3782 15.602C14.7352 16.977 17.3242 16.704 18.8142 15.639C18.8944 15.5817 18.9851 15.5408 19.081 15.5186C19.177 15.4964 19.2764 15.4933 19.3736 15.5095C19.4708 15.5257 19.5638 15.5609 19.6474 15.6131C19.731 15.6652 19.8035 15.7333 19.8607 15.8135C19.918 15.8937 19.9589 15.9843 19.9811 16.0803C20.0033 16.1763 20.0064 16.2757 19.9902 16.3729C19.974 16.4701 19.9388 16.5631 19.8867 16.6467C19.8345 16.7303 19.7664 16.8027 19.6862 16.86C17.6762 18.296 14.4462 18.545 11.6222 16.898C10.3322 16.145 9.31223 15.648 8.31523 15.486C7.35823 15.33 6.36023 15.476 5.10923 16.158C5.02275 16.2051 4.92784 16.2348 4.8299 16.2453C4.73197 16.2557 4.63293 16.2468 4.53845 16.219C4.44397 16.1912 4.35589 16.145 4.27924 16.0832C4.20259 16.0213 4.13887 15.945 4.09173 15.8585C4.04458 15.772 4.01493 15.6771 4.00447 15.5792C3.99401 15.4812 4.00294 15.3822 4.03075 15.2877C4.05856 15.1932 4.10471 15.1052 4.16656 15.0285C4.22841 14.9519 4.30475 14.8881 4.39123 14.841C5.25223 14.371 6.06023 14.094 6.84223 13.984ZM8.11223 10.95C7.59336 10.9043 7.07066 10.9312 6.55923 11.03C5.86423 11.162 5.14823 11.427 4.38923 11.84C4.21445 11.9353 4.08471 12.0962 4.02854 12.2872C3.97237 12.4782 3.99438 12.6837 4.08973 12.8585C4.18507 13.0333 4.34594 13.163 4.53695 13.2192C4.72796 13.2754 4.93345 13.2533 5.10823 13.158C6.35823 12.475 7.35623 12.33 8.31323 12.485C9.31023 12.647 10.3312 13.145 11.6202 13.897C14.4452 15.545 17.6752 15.295 19.6842 13.86C19.8428 13.7432 19.9491 13.5687 19.9801 13.3743C20.0111 13.1798 19.9644 12.9809 19.85 12.8206C19.7357 12.6602 19.5628 12.5513 19.3688 12.5174C19.1748 12.4834 18.9753 12.5271 18.8132 12.639C18.4032 12.931 17.9132 13.163 17.3652 13.319C16.8296 13.4675 16.276 13.5409 15.7202 13.537C14.5427 13.5243 13.3893 13.2015 12.3762 12.601C11.0752 11.842 9.84623 11.215 8.55323 11.005C8.40696 10.9812 8.25986 10.9629 8.11223 10.95ZM17.5252 12C17.5252 12.07 17.5239 12.14 17.5212 12.21C17.0742 12.39 16.5542 12.506 15.9902 12.531C16.0136 12.357 16.0252 12.18 16.0252 12C16.0256 11.1136 15.7334 10.2519 15.1939 9.54857C14.6544 8.84526 13.8978 8.3397 13.0416 8.11038C12.1854 7.88105 11.2774 7.94077 10.4586 8.28028C9.63978 8.61978 8.95595 9.22008 8.51323 9.988C7.96438 9.91358 7.40834 9.90854 6.85823 9.973C7.33098 8.77704 8.20597 7.78336 9.33252 7.16311C10.4591 6.54286 11.7666 6.33486 13.03 6.57494C14.2934 6.81502 15.4336 7.48814 16.2541 8.47838C17.0746 9.46863 17.5241 10.714 17.5252 12ZM12.1222 22C12.0388 22.0133 11.9537 22.0133 11.8702 22H12.1222ZM5.97423 4.94L5.89023 4.868C5.73812 4.75495 5.54886 4.70367 5.36049 4.72448C5.17212 4.74528 4.9986 4.83663 4.87484 4.98016C4.75108 5.12368 4.68624 5.30874 4.69336 5.49813C4.70048 5.68751 4.77904 5.86717 4.91323 6.001L5.97323 7.062L6.05823 7.135C6.2104 7.24978 6.40057 7.30232 6.59009 7.28193C6.77961 7.26154 6.95425 7.16976 7.07853 7.02523C7.20281 6.88071 7.2674 6.69429 7.25917 6.50385C7.25094 6.31342 7.17051 6.13327 7.03423 6L5.97423 4.94ZM19.1512 5.917C19.2629 5.76479 19.313 5.57608 19.2917 5.38852C19.2703 5.20096 19.179 5.02836 19.036 4.90516C18.893 4.78196 18.7087 4.71722 18.5201 4.72386C18.3314 4.7305 18.1522 4.80804 18.0182 4.941L16.9572 6L16.8842 6.085C16.7711 6.2372 16.7198 6.42661 16.7407 6.6151C16.7616 6.80359 16.8532 6.97716 16.9969 7.10087C17.1406 7.22458 17.3259 7.28924 17.5154 7.28185C17.7049 7.27445 17.8846 7.19554 18.0182 7.061L19.0782 6.001L19.1512 5.917ZM12.7432 2.637C12.7173 2.44875 12.6209 2.27735 12.4735 2.15743C12.3261 2.03752 12.1387 1.97802 11.9491 1.99097C11.7595 2.00393 11.5819 2.08836 11.4522 2.22721C11.3225 2.36606 11.2503 2.54898 11.2502 2.739V4.239L11.2572 4.341C11.2831 4.52925 11.3795 4.70065 11.5269 4.82057C11.6743 4.94048 11.8618 4.99998 12.0513 4.98703C12.2409 4.97407 12.4185 4.88964 12.5483 4.75079C12.678 4.61194 12.7502 4.42902 12.7502 4.239V2.739L12.7432 2.637ZM5.11023 19.158C6.36123 18.476 7.35923 18.33 8.31623 18.486C9.31223 18.648 10.3342 19.146 11.6232 19.898C14.4482 21.545 17.6782 21.296 19.6872 19.86C19.7699 19.8038 19.8405 19.7316 19.8948 19.6477C19.9492 19.5638 19.9862 19.4699 20.0038 19.3715C20.0213 19.2731 20.019 19.1722 19.997 19.0747C19.975 18.9772 19.9337 18.8851 19.8756 18.8037C19.8175 18.7224 19.7437 18.6535 19.6585 18.6011C19.5734 18.5487 19.4787 18.5139 19.3799 18.4986C19.2811 18.4834 19.1802 18.488 19.0833 18.5123C18.9863 18.5366 18.8952 18.58 18.8152 18.64C17.3252 19.704 14.7362 19.977 12.3792 18.602C11.0782 17.842 9.84923 17.215 8.55623 17.005C7.22323 16.789 5.89123 17.024 4.39223 17.842C4.22478 17.9409 4.10231 18.101 4.05064 18.2885C3.99898 18.476 4.02217 18.6762 4.11531 18.847C4.20846 19.0177 4.36428 19.1455 4.5499 19.2036C4.73552 19.2616 4.93643 19.2453 5.11023 19.158Z" fill="black"/>
</svg>
