<svg width="189" height="188" viewBox="0 0 189 188" fill="none" xmlns="http://www.w3.org/2000/svg">
<g clip-path="url(#clip0_381_729)">
<path d="M39.98 60.16C18.2829 60.16 0.5 77.8884 0.5 99.5272C0.5 107.912 3.17712 115.705 7.7098 122.11L35.1634 169.568C39.008 174.592 41.5648 173.639 44.7627 169.305L75.042 117.774C75.653 116.665 76.1324 115.488 76.5516 114.285C78.4731 109.602 79.4611 104.589 79.46 99.5272C79.46 77.8884 61.6827 60.16 39.98 60.16ZM39.98 78.6066C51.6661 78.6066 60.9608 87.8768 60.9608 99.5291C60.9608 111.181 51.6661 120.448 39.98 120.448C28.2958 120.448 18.9992 111.179 18.9992 99.5291C18.9992 87.8768 28.2958 78.6066 39.98 78.6066ZM165.47 0C152.814 0 142.44 10.3419 142.44 22.9661C142.44 27.856 144 32.4018 146.646 36.1374L162.661 63.8222C164.904 66.7513 166.395 66.1948 168.26 63.6681L185.923 33.6069C186.28 32.962 186.56 32.2758 186.802 31.5727C187.924 28.8419 188.5 25.9182 188.5 22.9661C188.5 10.34 178.13 0 165.47 0ZM165.47 10.7611C172.287 10.7611 177.709 16.168 177.709 22.9661C177.709 29.7623 172.287 35.1673 165.47 35.1673C158.655 35.1673 153.231 29.7623 153.231 22.9661C153.231 16.168 158.655 10.7611 165.47 10.7611Z" fill="#0C9C35"/>
<path fill-rule="evenodd" clip-rule="evenodd" d="M166.333 70.3346C162.109 70.4286 157.873 70.6072 153.63 70.9212L154.284 81.3213C158.36 81.0261 162.443 80.8362 166.528 80.7517L166.333 70.3346ZM143.82 71.8762C137.296 72.6865 130.716 73.8408 124.212 75.6964L126.661 85.775C132.572 84.0906 138.697 83.002 144.918 82.2294L143.82 71.8762ZM114.471 79.1856C112.522 80.046 110.635 81.0404 108.824 82.1617L108.816 82.1711L108.805 82.1748C106.22 83.8029 103.496 85.869 101.272 88.8714C99.6606 91.0466 98.3427 93.797 98.0344 97.0494L107.613 98.1116C107.684 97.3483 108.075 96.3406 108.779 95.3931H108.782V95.3894C109.916 93.8553 111.616 92.4622 113.637 91.1876L113.644 91.1838C115.085 90.2947 116.585 89.5058 118.133 88.8225L114.471 79.1856ZM109.54 102.751L103.33 110.713C104.802 112.059 106.346 113.093 107.837 113.958L107.856 113.968L107.874 113.979C112.822 116.793 117.925 118.382 122.655 119.89L125.373 109.892C120.645 108.384 116.188 106.929 112.368 104.759C111.273 104.124 110.315 103.46 109.54 102.751ZM134.61 112.704L131.955 122.719L133.211 123.11L134.753 123.603C139.855 125.263 144.743 127.035 149.112 129.489L153.545 120.239C148.262 117.271 142.778 115.331 137.494 113.612L137.479 113.608L135.896 113.103L134.61 112.704ZM162.56 127.18L155.749 134.55C157.358 136.293 158.563 138.389 159.149 140.554L159.153 140.566L159.157 140.583C159.856 143.111 159.858 146.085 159.311 149.09L168.756 151.105C169.527 146.864 169.651 142.207 168.384 137.61C167.28 133.546 165.175 130.015 162.56 127.18ZM156.014 155.369C154.973 156.468 153.823 157.458 152.581 158.324H152.577C149.193 160.704 145.268 162.498 141.098 164.039L144.207 173.898C148.768 172.212 153.451 170.144 157.828 167.064L157.839 167.055L157.845 167.051C159.642 165.793 161.305 164.352 162.806 162.752L156.014 155.369ZM132.25 166.816C126.21 168.441 120.036 169.678 113.787 170.727L115.261 181.027C121.692 179.946 128.15 178.655 134.568 176.929L132.25 166.816ZM104.385 172.148C98.0946 173.007 91.7702 173.708 85.4271 174.306L86.2581 184.687C92.699 184.082 99.1511 183.37 105.594 182.488L104.385 172.148ZM75.8936 175.124C69.5374 175.628 63.166 176.038 56.7891 176.384L57.2704 186.791C63.7094 186.443 70.154 186.028 76.5968 185.517L75.8936 175.124ZM47.2067 176.854C43.3847 177.032 39.5532 177.179 35.7124 177.314L36.0282 187.731C39.8931 187.598 43.7572 187.444 47.6203 187.269L47.2067 176.854Z" fill="#0C9C35"/>
</g>
<defs>
<clipPath id="clip0_381_729">
<rect width="188" height="188" fill="white" transform="translate(0.5)"/>
</clipPath>
</defs>
</svg>
