<svg width="81" height="88" viewBox="0 0 81 88" fill="none" xmlns="http://www.w3.org/2000/svg">
<path fill-rule="evenodd" clip-rule="evenodd" d="M45.5459 0H40.4852C35.9971 0.000596893 31.6363 1.492 28.0877 4.23997C24.5392 6.98793 22.004 10.8368 20.8803 15.182H20.2426C14.8739 15.182 9.72515 17.3147 5.92893 21.1109C2.1327 24.9071 0 30.0559 0 35.4246C0 40.7933 2.1327 45.9421 5.92893 49.7383C9.72515 53.5345 14.8739 55.6672 20.2426 55.6672H60.7279C65.7052 55.6744 70.5108 53.8476 74.2264 50.5357C77.9421 47.2239 80.3073 42.6591 80.8701 37.7137C81.433 32.7682 80.154 27.7887 77.2776 23.7266C74.4013 19.6645 70.1291 16.8045 65.2774 15.6931C64.2466 11.2321 61.7346 7.25197 58.1512 4.40198C54.5678 1.55199 50.1245 0.000293712 45.5459 0ZM24.8023 20.2426L25.779 16.4471C26.6223 13.188 28.5242 10.3013 31.186 8.24039C33.8478 6.17944 37.1188 5.06098 40.4852 5.06065H45.5459C52.6561 5.06065 58.7744 9.99479 60.3433 16.8267L61.0517 19.9137L64.1387 20.6272C67.7675 21.4711 70.9595 23.6193 73.1075 26.6633C75.2555 29.7073 76.2097 33.4347 75.7885 37.1364C75.3674 40.8381 73.6002 44.2558 70.8233 46.7395C68.0464 49.2231 64.4534 50.5994 60.7279 50.6065H20.2426C16.2161 50.6065 12.3545 49.007 9.50735 46.1599C6.66018 43.3127 5.06066 39.4511 5.06066 35.4246C5.06066 31.3981 6.66018 27.5365 9.50735 24.6893C12.3545 21.8421 16.2161 20.2426 20.2426 20.2426H24.8023Z" fill="#4ECB71"/>
<path d="M40.4852 47.0292C40.4852 46.3581 40.7518 45.7145 41.2264 45.24C41.7009 44.7655 42.3445 44.4989 43.0156 44.4989C43.6866 44.4989 44.3303 44.7655 44.8048 45.24C45.2793 45.7145 45.5459 46.3581 45.5459 47.0292V84.9841C45.5459 85.6552 45.2793 86.2988 44.8048 86.7734C44.3303 87.2479 43.6866 87.5145 43.0156 87.5145C42.3445 87.5145 41.7009 87.2479 41.2264 86.7734C40.7518 86.2988 40.4852 85.6552 40.4852 84.9841V47.0292Z" fill="#4ECB71"/>
<path d="M54.0883 72.889C54.6148 72.5071 55.2681 72.3426 55.9127 72.4296C56.5573 72.5167 57.1436 72.8486 57.5499 73.3565C57.9562 73.8644 58.1513 74.5093 58.0948 75.1572C58.0382 75.8052 57.7343 76.4065 57.2461 76.8363L44.5945 86.9576C44.3376 87.1838 44.0374 87.3556 43.7122 87.4624C43.3869 87.5693 43.0434 87.609 42.7023 87.5793C42.3613 87.5495 42.0299 87.4508 41.7281 87.2892C41.4263 87.1277 41.1604 86.9065 40.9465 86.6392C40.7327 86.3719 40.5753 86.0639 40.4839 85.734C40.3925 85.4041 40.369 85.0591 40.4148 84.7198C40.4606 84.3806 40.5748 84.0542 40.7505 83.7603C40.9261 83.4665 41.1595 83.2113 41.4366 83.0103L54.0883 72.889Z" fill="#4ECB71"/>
<path d="M28.785 76.8363C28.2968 76.4065 27.9929 75.8052 27.9364 75.1572C27.8798 74.5093 28.0749 73.8644 28.4813 73.3565C28.8876 72.8486 29.4739 72.5167 30.1185 72.4296C30.763 72.3426 31.4164 72.5071 31.9429 72.889L44.5945 83.0103C44.8716 83.2113 45.105 83.4665 45.2807 83.7603C45.4563 84.0542 45.5705 84.3806 45.6163 84.7198C45.6621 85.0591 45.6386 85.4041 45.5472 85.734C45.4559 86.0639 45.2985 86.3719 45.0846 86.6392C44.8708 86.9065 44.6049 87.1277 44.3031 87.2892C44.0013 87.4508 43.6698 87.5495 43.3288 87.5793C42.9878 87.609 42.6442 87.5693 42.319 87.4624C41.9938 87.3556 41.6936 87.1838 41.4366 86.9576L28.785 76.8363Z" fill="#4ECB71"/>
</svg>
