<svg width="198" height="194" viewBox="0 0 198 194" fill="none" xmlns="http://www.w3.org/2000/svg">
<path d="M166.762 144.163C170.612 137.425 173.5 129.725 173.5 121.063C173.5 97 154.25 77.75 130.188 77.75C106.125 77.75 86.875 97 86.875 121.063C86.875 145.125 106.125 164.375 130.188 164.375C138.85 164.375 146.55 161.488 153.287 157.638L184.088 188.438L197.562 174.963L166.762 144.163ZM130.188 145.125C116.713 145.125 106.125 134.538 106.125 121.063C106.125 107.588 116.713 97 130.188 97C143.662 97 154.25 107.588 154.25 121.063C154.25 134.538 143.662 145.125 130.188 145.125ZM96.5 174V193.25C43.37 193.25 0.25 150.13 0.25 97C0.25 43.87 43.37 0.75 96.5 0.75C143.085 0.75 181.874 33.86 190.825 77.75H170.901C167.899 66.1214 162.219 55.3563 154.314 46.3149C146.409 37.2735 136.499 30.2065 125.375 25.6788V29.625C125.375 40.2125 116.713 48.875 106.125 48.875H86.875V68.125C86.875 73.4188 82.5438 77.75 77.25 77.75H58V97H77.25V125.875H67.625L21.5213 79.7713C20.27 85.3538 19.5 91.0325 19.5 97C19.5 139.446 54.0538 174 96.5 174Z" fill="#0C9C35"/>
</svg>
