<svg width="90" height="90" viewBox="0 0 90 90" fill="none" xmlns="http://www.w3.org/2000/svg">
<path d="M78.5362 63.1312C76.4809 50.8632 70.607 39.5565 61.7512 30.8212C59.8125 28.935 58.845 27.9937 56.7037 27.1237C54.5625 26.25 52.7212 26.25 49.0425 26.25H40.9575C37.2787 26.25 35.4375 26.25 33.2962 27.1237C31.1587 27.9937 30.1837 28.935 28.2487 30.8212C19.3929 39.5565 13.5191 50.8632 11.4637 63.1312C9.63749 74.1487 19.8 82.5 31.155 82.5H58.845C70.2037 82.5 80.37 74.1487 78.5325 63.1312" stroke="#4ECB71" stroke-width="4" stroke-linecap="round" stroke-linejoin="round"/>
<path d="M51.1012 48.4463C50.2912 45.45 46.1625 42.75 41.2087 44.7713C36.255 46.7925 35.4712 53.2913 42.96 53.985C46.35 54.2963 48.555 53.6213 50.5762 55.53C52.6012 57.435 52.9762 62.7413 47.805 64.17C42.6412 65.5988 37.5225 63.3675 36.9675 60.195M44.4075 41.22V44.0738M44.4075 64.6088V67.4738M27.2137 16.6613C26.4375 15.5363 25.3162 14.0063 27.6337 13.6613C30.015 13.3013 32.4862 14.9288 34.9087 14.8988C37.095 14.865 38.2087 13.8938 39.4087 12.5063C40.6687 11.0475 42.6187 7.5 45 7.5C47.3812 7.5 49.3312 11.0475 50.5912 12.5063C51.7912 13.8938 52.905 14.8688 55.0912 14.895C57.5137 14.9325 59.985 13.3013 62.3662 13.6575C64.6837 14.0063 63.5625 15.5325 62.7862 16.6575L59.2912 21.7538C57.7912 23.9288 57.045 25.0163 55.4775 25.635C53.91 26.2538 51.8887 26.25 47.8425 26.25H42.1575C38.1075 26.25 36.0862 26.25 34.5225 25.635C32.9587 25.02 32.2087 23.925 30.7087 21.75L27.2137 16.6613Z" stroke="#4ECB71" stroke-width="4" stroke-linecap="round" stroke-linejoin="round"/>
</svg>
