<svg width="24" height="24" viewBox="0 0 24 24" fill="none" xmlns="http://www.w3.org/2000/svg">
<path d="M9.00684 17C9.00684 17.5304 8.79612 18.0391 8.42105 18.4142C8.04598 18.7893 7.53727 19 7.00684 19C6.4764 19 5.9677 18.7893 5.59262 18.4142C5.21755 18.0391 5.00684 17.5304 5.00684 17C5.00684 16.4696 5.21755 15.9609 5.59262 15.5858C5.9677 15.2107 6.4764 15 7.00684 15C7.53727 15 8.04598 15.2107 8.42105 15.5858C8.79612 15.9609 9.00684 16.4696 9.00684 17ZM19.0068 17C19.0068 17.5304 18.7961 18.0391 18.421 18.4142C18.046 18.7893 17.5373 19 17.0068 19C16.4764 19 15.9677 18.7893 15.5926 18.4142C15.2176 18.0391 15.0068 17.5304 15.0068 17C15.0068 16.4696 15.2176 15.9609 15.5926 15.5858C15.9677 15.2107 16.4764 15 17.0068 15C17.5373 15 18.046 15.2107 18.421 15.5858C18.7961 15.9609 19.0068 16.4696 19.0068 17Z" stroke="black" stroke-width="1.5" stroke-linecap="round" stroke-linejoin="round"/>
<path d="M2.00684 10H18.0068M2.00684 10C2.00684 10.78 1.98684 13.04 2.01084 15.26C2.04684 15.98 2.16684 16.58 5.00884 17M2.00684 10C2.22284 8.26 3.16184 6.2 3.64184 5.42M9.00684 10V5M14.9968 17H9.00184M2.02184 5H12.2398C12.2398 5 12.7798 5 13.2598 5.048C14.1588 5.132 14.9138 5.54 15.6698 6.56C16.4698 7.64 17.0838 9.008 17.8998 9.74C19.2548 10.956 21.8328 10.58 21.9768 13.16C22.0128 14.48 22.0128 15.92 21.9528 16.16C21.8558 16.867 21.3108 16.982 20.6328 17C20.0448 17.016 19.3358 16.972 18.9908 17" stroke="black" stroke-width="1.5" stroke-linecap="round" stroke-linejoin="round"/>
</svg>
