<svg width="354" height="42" viewBox="0 0 354 42" fill="none" xmlns="http://www.w3.org/2000/svg">
<circle cx="20.9999" cy="21" r="13.705" stroke="#353525" stroke-width="0.536398"/>
<circle cx="20.9999" cy="21" r="19.2299" stroke="#353525" stroke-width="0.804598"/>
<circle cx="21.0267" cy="34.705" r="1.77011" fill="#353525"/>
<circle cx="21.0267" cy="7.29502" r="1.77011" fill="#353525"/>
<circle cx="21.0267" cy="1.77011" r="1.77011" fill="#353525"/>
<circle cx="1.76999" cy="20.9732" r="1.77011" fill="#353525"/>
<circle cx="40.2298" cy="20.9732" r="1.77011" fill="#353525"/>
<circle cx="21.0267" cy="40.2299" r="1.77011" fill="#353525"/>
<path fill-rule="evenodd" clip-rule="evenodd" d="M18.1538 19.8492L21.0768 20.9712L6.11647 27.632L18.1538 19.8492Z" fill="#353525"/>
<path fill-rule="evenodd" clip-rule="evenodd" d="M19.9567 23.8985L21.0787 20.9756L6.11844 27.6364L19.9567 23.8985Z" fill="#353525"/>
<path fill-rule="evenodd" clip-rule="evenodd" d="M24.0061 22.0957L21.0832 20.9737L36.0434 14.3129L24.0061 22.0957Z" fill="#353525"/>
<path fill-rule="evenodd" clip-rule="evenodd" d="M22.2032 18.0463L21.0812 20.9692L36.0415 14.3085L22.2032 18.0463Z" fill="#353525"/>
<path fill-rule="evenodd" clip-rule="evenodd" d="M19.9567 23.8985L21.0787 20.9756L21.0792 20.9766L27.7395 35.9359L19.9567 23.8985Z" fill="#353525"/>
<path fill-rule="evenodd" clip-rule="evenodd" d="M23.9806 22.0385L21.0577 20.9165L27.7185 35.8767L23.9806 22.0385Z" fill="#353525"/>
<path fill-rule="evenodd" clip-rule="evenodd" d="M22.2032 18.0463L21.0812 20.9692L21.0808 20.9683L14.4205 6.009L22.2032 18.0463Z" fill="#353525"/>
<path fill-rule="evenodd" clip-rule="evenodd" d="M18.1539 19.8492L21.0768 20.9712L14.4161 6.01095L18.1539 19.8492Z" fill="#353525"/>
<path fill-rule="evenodd" clip-rule="evenodd" d="M19.3379 17.0602L21.0778 20.9682L0.188278 12.9495L19.3379 17.0602Z" fill="#353525"/>
<path fill-rule="evenodd" clip-rule="evenodd" d="M17.1674 22.7144L21.0755 20.9744L0.185913 12.9556L17.1674 22.7144Z" fill="#353525"/>
<path fill-rule="evenodd" clip-rule="evenodd" d="M22.8216 24.8849L21.0816 20.9768L41.9712 28.9955L22.8216 24.8849Z" fill="#353525"/>
<path fill-rule="evenodd" clip-rule="evenodd" d="M24.9921 19.2306L21.084 20.9706L41.9736 28.9894L24.9921 19.2306Z" fill="#353525"/>
<path fill-rule="evenodd" clip-rule="evenodd" d="M17.1674 22.7144L21.0755 20.9744L13.0567 41.864L17.1674 22.7144Z" fill="#353525"/>
<path fill-rule="evenodd" clip-rule="evenodd" d="M22.8523 24.805L21.1123 20.8969L13.0936 41.7865L22.8523 24.805Z" fill="#353525"/>
<path fill-rule="evenodd" clip-rule="evenodd" d="M24.9921 19.2307L21.084 20.9707L29.1027 0.0811191L24.9921 19.2307Z" fill="#353525"/>
<path fill-rule="evenodd" clip-rule="evenodd" d="M19.3379 17.0602L21.0779 20.9683L29.0966 0.0787659L19.3379 17.0602Z" fill="#353525"/>
<path d="M19.9567 23.8985L21.0787 20.9756M19.9567 23.8985L6.11844 27.6364L21.0787 20.9756M19.9567 23.8985L27.7395 35.9359L21.0792 20.9766L21.0787 20.9756M22.2032 18.0463L21.0812 20.9693M22.2032 18.0463L36.0415 14.3085L21.0812 20.9693M22.2032 18.0463L14.4205 6.009L21.0808 20.9683L21.0812 20.9693M17.1674 22.7144L21.0755 20.9744M17.1674 22.7144L0.185913 12.9556L21.0755 20.9744M17.1674 22.7144L13.0567 41.864L21.0755 20.9744M18.1538 19.8492L21.0768 20.9712L6.11647 27.632L18.1538 19.8492ZM24.0061 22.0957L21.0832 20.9737L36.0435 14.3129L24.0061 22.0957ZM23.9806 22.0385L21.0577 20.9165L27.7185 35.8767L23.9806 22.0385ZM18.1539 19.8492L21.0768 20.9712L14.4161 6.01095L18.1539 19.8492ZM19.3379 17.0602L21.0778 20.9682L0.188278 12.9495L19.3379 17.0602ZM22.8216 24.8849L21.0817 20.9768L41.9712 28.9955L22.8216 24.8849ZM24.9921 19.2306L21.084 20.9706L41.9736 28.9894L24.9921 19.2306ZM22.8523 24.805L21.1123 20.8969L13.0936 41.7865L22.8523 24.805ZM24.9921 19.2307L21.084 20.9707L29.1027 0.0811191L24.9921 19.2307ZM19.3379 17.0602L21.0779 20.9683L29.0966 0.0787659L19.3379 17.0602Z" stroke="#353525" stroke-width="0.0536398" stroke-linecap="square"/>
<path d="M68.5552 35.0736C61.0356 35.0736 55.2078 28.945 55.2078 20.9742C55.2078 13.0409 61.0356 6.95002 68.5552 6.95002C75.3229 6.95002 80.7371 11.4618 81.7523 18.1167H77.3533C76.6013 13.7553 73.067 10.6723 68.5928 10.6723C63.2539 10.6723 59.4941 14.9961 59.4941 20.9742C59.4941 27.0275 63.2539 31.3513 68.5928 31.3513C73.067 31.3513 76.6013 28.2307 77.3533 23.8693H81.7523C80.7371 30.5618 75.3229 35.0736 68.5552 35.0736ZM97.8188 34.5096V31.4265C96.578 33.6448 94.3597 34.8856 91.4271 34.8856C87.2912 34.8856 84.5842 32.5169 84.5842 28.8698C84.5842 24.9596 87.7048 22.9293 93.6454 22.9293C94.8109 22.9293 95.7509 22.9669 97.3676 23.1549V21.6886C97.3676 18.8311 95.8261 17.2144 93.1942 17.2144C90.4119 17.2144 88.72 18.8687 88.6072 21.651H85.1481C85.3361 17.1768 88.532 14.2065 93.1942 14.2065C98.1196 14.2065 100.977 16.9888 100.977 21.7262V34.5096H97.8188ZM88.1936 28.757C88.1936 30.8249 89.7351 32.1785 92.179 32.1785C95.3749 32.1785 97.3676 30.1858 97.3676 27.1403V25.5236C95.9013 25.3356 94.8485 25.298 93.871 25.298C90.0735 25.298 88.1936 26.4259 88.1936 28.757ZM109.852 24.3204V34.5096H106.054V14.5825H109.589V18.7935C110.98 16.0488 113.988 14.3193 117.259 14.3193V18.2671C112.972 18.0415 109.852 19.9214 109.852 24.3204ZM139.289 24.546C139.289 30.5242 135.829 34.8856 130.453 34.8856C127.633 34.8856 125.227 33.4568 123.798 30.9377V34.5096H120.264V7.51399H124.061V18.0039C125.452 15.56 127.746 14.2065 130.453 14.2065C135.792 14.2065 139.289 18.4927 139.289 24.546ZM135.341 24.546C135.341 20.0342 132.972 17.5527 129.701 17.5527C126.543 17.5527 124.061 19.9966 124.061 24.4708C124.061 28.8698 126.468 31.5017 129.701 31.5017C132.972 31.5017 135.341 28.9826 135.341 24.546ZM151.485 34.8856C145.846 34.8856 141.71 30.449 141.71 24.546C141.71 18.6431 145.846 14.2065 151.485 14.2065C157.125 14.2065 161.261 18.6431 161.261 24.546C161.261 30.449 157.125 34.8856 151.485 34.8856ZM151.485 31.5393C154.756 31.5393 157.351 28.9074 157.351 24.546C157.351 20.1846 154.756 17.5903 151.485 17.5903C148.214 17.5903 145.658 20.1846 145.658 24.546C145.658 28.9074 148.214 31.5393 151.485 31.5393ZM168.93 23.2677V34.5096H165.132V14.5825H168.666V17.8911C170.02 15.6728 172.276 14.2065 175.02 14.2065C179.119 14.2065 181.826 16.8384 181.826 21.6134V34.5096H178.028V22.8917C178.028 19.4703 176.524 17.5527 173.705 17.5527C171.11 17.5527 168.93 19.7334 168.93 23.2677ZM198.938 35.0736C191.418 35.0736 185.59 28.945 185.59 20.9742C185.59 13.0409 191.418 6.95002 198.938 6.95002C205.705 6.95002 211.12 11.4618 212.135 18.1167H207.736C206.984 13.7553 203.449 10.6723 198.975 10.6723C193.636 10.6723 189.876 14.9961 189.876 20.9742C189.876 27.0275 193.636 31.3513 198.975 31.3513C203.449 31.3513 206.984 28.2307 207.736 23.8693H212.135C211.12 30.5618 205.705 35.0736 198.938 35.0736ZM224.479 34.8856C218.839 34.8856 214.703 30.449 214.703 24.546C214.703 18.6431 218.839 14.2065 224.479 14.2065C230.119 14.2065 234.255 18.6431 234.255 24.546C234.255 30.449 230.119 34.8856 224.479 34.8856ZM224.479 31.5393C227.75 31.5393 230.344 28.9074 230.344 24.546C230.344 20.1846 227.75 17.5903 224.479 17.5903C221.208 17.5903 218.651 20.1846 218.651 24.546C218.651 28.9074 221.208 31.5393 224.479 31.5393ZM241.923 34.5096H238.126V14.5825H241.66V17.8911C243.013 15.5976 245.157 14.2065 247.901 14.2065C250.834 14.2065 253.052 15.7104 253.955 18.3423C255.346 15.7856 257.639 14.2065 260.685 14.2065C264.783 14.2065 267.415 16.876 267.415 21.6134V34.5096H263.617V22.8165C263.617 19.5079 262.151 17.5527 259.369 17.5527C256.774 17.5527 254.669 19.7334 254.669 23.0797V34.5096H250.871V22.8165C250.871 19.5079 249.405 17.5527 246.623 17.5527C243.991 17.5527 241.923 19.7334 241.923 23.0797V34.5096ZM291.518 24.546C291.518 30.5618 288.059 34.8856 282.72 34.8856C280.013 34.8856 277.719 33.532 276.29 31.1257V41.7661H272.493V14.5825H276.027V18.2295C277.456 15.6728 279.9 14.2065 282.72 14.2065C288.021 14.2065 291.518 18.5303 291.518 24.546ZM287.57 24.546C287.57 20.0718 285.201 17.5527 281.93 17.5527C278.772 17.5527 276.29 20.0718 276.29 24.546C276.29 28.945 278.734 31.5017 281.93 31.5017C285.201 31.5017 287.57 29.0202 287.57 24.546ZM307.437 34.5096V31.4265C306.196 33.6448 303.978 34.8856 301.045 34.8856C296.909 34.8856 294.202 32.5169 294.202 28.8698C294.202 24.9596 297.323 22.9293 303.263 22.9293C304.429 22.9293 305.369 22.9669 306.986 23.1549V21.6886C306.986 18.8311 305.444 17.2144 302.812 17.2144C300.03 17.2144 298.338 18.8687 298.225 21.651H294.766C294.954 17.1768 298.15 14.2065 302.812 14.2065C307.737 14.2065 310.595 16.9888 310.595 21.7262V34.5096H307.437ZM297.812 28.757C297.812 30.8249 299.353 32.1785 301.797 32.1785C304.993 32.1785 306.986 30.1858 306.986 27.1403V25.5236C305.519 25.3356 304.466 25.298 303.489 25.298C299.691 25.298 297.812 26.4259 297.812 28.757ZM331.463 28.569C331.463 32.4793 328.418 34.8856 323.117 34.8856C317.853 34.8856 314.732 32.2913 314.356 28.0051H318.003C318.154 30.4866 320.146 32.0281 323.192 32.0281C325.861 32.0281 327.628 31.0881 327.628 29.2082C327.628 27.5539 326.613 26.8395 324.132 26.3507L320.898 25.7492C317.214 25.0348 315.146 23.1549 315.146 20.147C315.146 16.6504 318.191 14.2065 322.816 14.2065C327.591 14.2065 330.824 16.7632 331.163 20.8614H327.516C327.29 18.4551 325.523 17.064 322.853 17.064C320.447 17.064 318.83 18.0791 318.83 19.8086C318.83 21.4254 319.846 22.1773 322.252 22.6285L325.636 23.2677C329.584 23.9821 331.463 25.7116 331.463 28.569ZM351.401 28.569C351.401 32.4793 348.355 34.8856 343.054 34.8856C337.79 34.8856 334.67 32.2913 334.294 28.0051H337.941C338.091 30.4866 340.084 32.0281 343.129 32.0281C345.799 32.0281 347.566 31.0881 347.566 29.2082C347.566 27.5539 346.551 26.8395 344.069 26.3507L340.836 25.7492C337.151 25.0348 335.083 23.1549 335.083 20.147C335.083 16.6504 338.129 14.2065 342.753 14.2065C347.528 14.2065 350.762 16.7632 351.1 20.8614H347.453C347.227 18.4551 345.46 17.064 342.791 17.064C340.385 17.064 338.768 18.0791 338.768 19.8086C338.768 21.4254 339.783 22.1773 342.189 22.6285L345.573 23.2677C349.521 23.9821 351.401 25.7116 351.401 28.569Z" fill="#353525"/>
</svg>
