<svg width="24" height="24" viewBox="0 0 24 24" fill="none" xmlns="http://www.w3.org/2000/svg">
<path d="M12 22C10.6167 22 9.31667 21.7373 8.1 21.212C6.88334 20.6867 5.825 19.9743 4.925 19.075C4.025 18.1757 3.31267 17.1173 2.788 15.9C2.26333 14.6827 2.00067 13.3827 2 12C1.99933 10.6173 2.262 9.31733 2.788 8.1C3.314 6.88267 4.02633 5.82433 4.925 4.925C5.82367 4.02567 6.882 3.31333 8.1 2.788C9.318 2.26267 10.618 2 12 2C14.4333 2 16.5627 2.76267 18.388 4.288C20.2133 5.81333 21.3507 7.72567 21.8 10.025H19.75C19.4333 8.80833 18.8623 7.721 18.037 6.763C17.2117 5.805 16.1993 5.084 15 4.6V5C15 5.55 14.8043 6.021 14.413 6.413C14.0217 6.805 13.5507 7.00067 13 7H11V9C11 9.28333 10.904 9.521 10.712 9.713C10.52 9.905 10.2827 10.0007 10 10H8V12H10V15H9L4.2 10.2C4.15 10.5 4.10433 10.8 4.063 11.1C4.02167 11.4 4.00067 11.7 4 12C4 14.1833 4.76667 16.0583 6.3 17.625C7.83333 19.1917 9.73333 19.9833 12 20V22ZM21.1 21.5L17.9 18.3C17.55 18.5 17.175 18.6667 16.775 18.8C16.375 18.9333 15.95 19 15.5 19C14.25 19 13.1877 18.5627 12.313 17.688C11.4383 16.8133 11.0007 15.7507 11 14.5C10.9993 13.2493 11.437 12.187 12.313 11.313C13.189 10.439 14.2513 10.0013 15.5 10C16.7487 9.99867 17.8113 10.4363 18.688 11.313C19.5647 12.1897 20.002 13.252 20 14.5C20 14.95 19.9333 15.375 19.8 15.775C19.6667 16.175 19.5 16.55 19.3 16.9L22.5 20.1L21.1 21.5ZM15.5 17C16.2 17 16.7917 16.7583 17.275 16.275C17.7583 15.7917 18 15.2 18 14.5C18 13.8 17.7583 13.2083 17.275 12.725C16.7917 12.2417 16.2 12 15.5 12C14.8 12 14.2083 12.2417 13.725 12.725C13.2417 13.2083 13 13.8 13 14.5C13 15.2 13.2417 15.7917 13.725 16.275C14.2083 16.7583 14.8 17 15.5 17Z" fill="black"/>
</svg>
