<svg width="165" height="166" viewBox="0 0 165 166" fill="none" xmlns="http://www.w3.org/2000/svg">
<path d="M82.5 165.5C128.065 165.5 165 128.565 165 83C165 37.4353 128.065 0.5 82.5 0.5C36.9353 0.5 0 37.4353 0 83C0 128.565 36.9353 165.5 82.5 165.5ZM94.875 50C97.581 53.597 99.5198 57.8045 100.444 62.375H115.5V74.75H100.444C99.0174 81.738 95.2204 88.0185 89.6955 92.5286C84.1706 97.0387 77.257 99.5015 70.125 99.5H68.5575L99.2475 130.19L90.5025 138.935L49.5 97.9325V87.125H70.125C73.9646 87.1262 77.7101 85.9367 80.8454 83.7203C83.9807 81.504 86.3516 78.37 87.6315 74.75H49.5V62.375H87.6315C86.3516 58.755 83.9807 55.621 80.8454 53.4047C77.7101 51.1884 73.9646 49.9988 70.125 50H49.5V37.625H115.5V50H94.875Z" fill="#0C9C35"/>
</svg>
