<svg width="138" height="24" viewBox="0 0 138 24" fill="none" xmlns="http://www.w3.org/2000/svg">
<path fill-rule="evenodd" clip-rule="evenodd" d="M12 0C5.37 0 0 5.37 0 12C0 17.31 3.435 21.795 8.205 23.385C8.805 23.49 9.03 23.13 9.03 22.815C9.03 22.53 9.015 21.585 9.015 20.58C6 21.135 5.22 19.845 4.98 19.17C4.845 18.825 4.26 17.76 3.75 17.475C3.33 17.25 2.73 16.695 3.735 16.68C4.68 16.665 5.355 17.55 5.58 17.91C6.66 19.725 8.385 19.215 9.075 18.9C9.18 18.12 9.495 17.595 9.84 17.295C7.17 16.995 4.38 15.96 4.38 11.37C4.38 10.065 4.845 8.985 5.61 8.145C5.49 7.845 5.07 6.615 5.73 4.965C5.73 4.965 6.735 4.65 9.03 6.195C9.99 5.925 11.01 5.79 12.03 5.79C13.05 5.79 14.07 5.925 15.03 6.195C17.325 4.635 18.33 4.965 18.33 4.965C18.99 6.615 18.57 7.845 18.45 8.145C19.215 8.985 19.68 10.05 19.68 11.37C19.68 15.975 16.875 16.995 14.205 17.295C14.64 17.67 15.015 18.39 15.015 19.515C15.015 21.12 15 22.41 15 22.815C15 23.13 15.225 23.505 15.825 23.385C18.2072 22.5807 20.2772 21.0497 21.7437 19.0074C23.2101 16.965 23.9993 14.5143 24 12C24 5.37 18.63 0 12 0Z" fill="black"/>
<path fill-rule="evenodd" clip-rule="evenodd" d="M45.465 1.066C46.638 1.012 47.012 1 50 1C52.988 1 53.362 1.013 54.534 1.066C55.706 1.119 56.506 1.306 57.206 1.577C57.939 1.854 58.604 2.287 59.154 2.847C59.714 3.396 60.146 4.06 60.422 4.794C60.694 5.494 60.88 6.294 60.934 7.464C60.988 8.639 61 9.013 61 12C61 14.988 60.987 15.362 60.934 16.535C60.881 17.705 60.694 18.505 60.422 19.205C60.146 19.9391 59.7133 20.6042 59.154 21.154C58.604 21.714 57.939 22.146 57.206 22.422C56.506 22.694 55.706 22.88 54.536 22.934C53.362 22.988 52.988 23 50 23C47.012 23 46.638 22.987 45.465 22.934C44.295 22.881 43.495 22.694 42.795 22.422C42.0609 22.146 41.3958 21.7133 40.846 21.154C40.2864 20.6047 39.8533 19.9399 39.577 19.206C39.306 18.506 39.12 17.706 39.066 16.536C39.012 15.361 39 14.987 39 12C39 9.012 39.013 8.638 39.066 7.466C39.119 6.294 39.306 5.494 39.577 4.794C39.8537 4.06008 40.2871 3.39531 40.847 2.846C41.396 2.2865 42.0605 1.85344 42.794 1.577C43.494 1.306 44.294 1.12 45.464 1.066H45.465ZM54.445 3.046C53.285 2.993 52.937 2.982 50 2.982C47.063 2.982 46.715 2.993 45.555 3.046C44.482 3.095 43.9 3.274 43.512 3.425C42.999 3.625 42.632 3.862 42.247 4.247C41.882 4.60205 41.6012 5.03428 41.425 5.512C41.274 5.9 41.095 6.482 41.046 7.555C40.993 8.715 40.982 9.063 40.982 12C40.982 14.937 40.993 15.285 41.046 16.445C41.095 17.518 41.274 18.1 41.425 18.488C41.601 18.965 41.882 19.398 42.247 19.753C42.602 20.118 43.035 20.399 43.512 20.575C43.9 20.726 44.482 20.905 45.555 20.954C46.715 21.007 47.062 21.018 50 21.018C52.938 21.018 53.285 21.007 54.445 20.954C55.518 20.905 56.1 20.726 56.488 20.575C57.001 20.375 57.368 20.138 57.753 19.753C58.118 19.398 58.399 18.965 58.575 18.488C58.726 18.1 58.905 17.518 58.954 16.445C59.007 15.285 59.018 14.937 59.018 12C59.018 9.063 59.007 8.715 58.954 7.555C58.905 6.482 58.726 5.9 58.575 5.512C58.375 4.999 58.138 4.632 57.753 4.247C57.3979 3.88207 56.9657 3.60121 56.488 3.425C56.1 3.274 55.518 3.095 54.445 3.046V3.046ZM48.595 15.391C49.3797 15.7176 50.2534 15.7617 51.0669 15.5157C51.8805 15.2697 52.5834 14.7489 53.0556 14.0422C53.5278 13.3356 53.7401 12.4869 53.656 11.6411C53.572 10.7953 53.197 10.005 52.595 9.405C52.2112 9.02148 51.7472 8.72781 51.2363 8.54515C50.7255 8.36248 50.1804 8.29536 49.6405 8.34862C49.1006 8.40187 48.5792 8.57418 48.1138 8.85313C47.6485 9.13208 47.2507 9.51074 46.9493 9.96185C46.6479 10.413 46.4502 10.9253 46.3705 11.462C46.2908 11.9986 46.3312 12.5463 46.4885 13.0655C46.6459 13.5847 46.9165 14.0626 47.2807 14.4647C47.645 14.8668 48.0938 15.1832 48.595 15.391ZM46.002 8.002C46.527 7.47698 47.1503 7.0605 47.8363 6.77636C48.5223 6.49222 49.2575 6.34597 50 6.34597C50.7425 6.34597 51.4777 6.49222 52.1637 6.77636C52.8497 7.0605 53.473 7.47698 53.998 8.002C54.523 8.52702 54.9395 9.15032 55.2236 9.8363C55.5078 10.5223 55.654 11.2575 55.654 12C55.654 12.7425 55.5078 13.4777 55.2236 14.1637C54.9395 14.8497 54.523 15.473 53.998 15.998C52.9377 17.0583 51.4995 17.654 50 17.654C48.5005 17.654 47.0623 17.0583 46.002 15.998C44.9417 14.9377 44.346 13.4995 44.346 12C44.346 10.5005 44.9417 9.06234 46.002 8.002V8.002ZM56.908 7.188C57.0381 7.06527 57.1423 6.91768 57.2143 6.75397C57.2863 6.59027 57.3248 6.41377 57.3274 6.23493C57.33 6.05609 57.2967 5.87855 57.2295 5.71281C57.1622 5.54707 57.0624 5.39651 56.936 5.27004C56.8095 5.14357 56.6589 5.04376 56.4932 4.97652C56.3275 4.90928 56.1499 4.87598 55.9711 4.87858C55.7922 4.88119 55.6157 4.91965 55.452 4.9917C55.2883 5.06374 55.1407 5.1679 55.018 5.298C54.7793 5.55103 54.6486 5.88712 54.6537 6.23493C54.6588 6.58274 54.7992 6.91488 55.0452 7.16084C55.2911 7.40681 55.6233 7.54723 55.9711 7.5523C56.3189 7.55737 56.655 7.42669 56.908 7.188V7.188Z" fill="black"/>
<path d="M96.317 4.49197C94.787 3.80197 93.147 3.29197 91.432 3.00197C91.4167 2.99904 91.4009 3.00093 91.3868 3.00738C91.3726 3.01383 91.3608 3.02452 91.353 3.03797C91.143 3.40697 90.909 3.88797 90.745 4.26797C88.9261 3.99621 87.0769 3.99621 85.258 4.26797C85.0753 3.84683 84.8693 3.4362 84.641 3.03797C84.6333 3.02436 84.6215 3.01342 84.6074 3.00663C84.5933 2.99984 84.5775 2.99752 84.562 2.99997C82.848 3.28997 81.208 3.79997 79.677 4.49097C79.6638 4.4965 79.6527 4.50592 79.645 4.51797C76.533 9.09297 75.68 13.555 76.099 17.961C76.1002 17.9718 76.1035 17.9822 76.1088 17.9917C76.1142 18.0011 76.1214 18.0094 76.13 18.016C77.9464 19.3384 79.9723 20.3458 82.123 20.996C82.138 21.0006 82.154 21.0006 82.169 20.9959C82.184 20.9913 82.1972 20.9823 82.207 20.97C82.6698 20.351 83.0799 19.6944 83.433 19.007C83.4379 18.9976 83.4407 18.9872 83.4413 18.9766C83.4418 18.9661 83.4401 18.9555 83.4362 18.9456C83.4323 18.9358 83.4264 18.9268 83.4187 18.9195C83.4111 18.9121 83.402 18.9065 83.392 18.903C82.746 18.6597 82.1201 18.3661 81.52 18.025C81.5092 18.0188 81.5001 18.0101 81.4935 17.9995C81.487 17.989 81.4831 17.977 81.4823 17.9646C81.4815 17.9522 81.4838 17.9398 81.489 17.9286C81.4942 17.9173 81.5021 17.9075 81.512 17.9C81.638 17.807 81.764 17.71 81.884 17.613C81.8948 17.6043 81.9078 17.5987 81.9216 17.5969C81.9353 17.5952 81.9493 17.5973 81.962 17.603C85.889 19.367 90.142 19.367 94.023 17.603C94.0357 17.5969 94.0498 17.5946 94.0638 17.5961C94.0778 17.5977 94.091 17.6032 94.102 17.612C94.222 17.71 94.347 17.807 94.474 17.9C94.484 17.9073 94.492 17.917 94.4974 17.9282C94.5027 17.9394 94.5052 17.9517 94.5046 17.9641C94.504 17.9765 94.5004 17.9885 94.494 17.9991C94.4876 18.0098 94.4787 18.0186 94.468 18.025C93.87 18.369 93.248 18.66 92.595 18.902C92.585 18.9056 92.5758 18.9114 92.5682 18.9188C92.5606 18.9263 92.5546 18.9353 92.5507 18.9452C92.5468 18.9551 92.5451 18.9658 92.5457 18.9764C92.5463 18.9871 92.5491 18.9975 92.554 19.007C92.914 19.694 93.326 20.348 93.779 20.969C93.7884 20.9817 93.8015 20.9912 93.8166 20.9963C93.8316 21.0013 93.8478 21.0015 93.863 20.997C96.0173 20.3486 98.0466 19.3407 99.865 18.016C99.8739 18.0098 99.8813 18.0017 99.8868 17.9924C99.8923 17.9831 99.8958 17.9727 99.897 17.962C100.397 12.868 99.059 8.44197 96.348 4.51997C96.3413 4.50723 96.3303 4.49729 96.317 4.49197ZM84.02 15.278C82.838 15.278 81.863 14.209 81.863 12.898C81.863 11.586 82.819 10.518 84.02 10.518C85.23 10.518 86.196 11.595 86.177 12.898C86.177 14.21 85.221 15.278 84.02 15.278V15.278ZM91.995 15.278C90.812 15.278 89.838 14.209 89.838 12.898C89.838 11.586 90.793 10.518 91.995 10.518C93.205 10.518 94.171 11.595 94.152 12.898C94.152 14.21 93.206 15.278 91.995 15.278V15.278Z" fill="black"/>
<path fill-rule="evenodd" clip-rule="evenodd" d="M126 0C119.375 0 114 5.375 114 12C114 18.625 119.375 24 126 24C132.612 24 138 18.625 138 12C138 5.375 132.612 0 126 0ZM133.926 5.531C135.403 7.33034 136.221 9.5809 136.243 11.909C135.905 11.844 132.521 11.154 129.111 11.584C129.032 11.414 128.967 11.232 128.889 11.05C128.677 10.5494 128.452 10.0546 128.213 9.566C131.987 8.03 133.705 5.818 133.926 5.531V5.531ZM126 1.771C128.603 1.771 130.985 2.746 132.794 4.347C132.612 4.607 131.063 6.677 127.419 8.043C125.739 4.959 123.879 2.433 123.592 2.043C124.381 1.85869 125.189 1.76707 126 1.77V1.771ZM121.64 2.733C121.913 3.098 123.735 5.636 125.44 8.655C120.65 9.931 116.42 9.905 115.965 9.905C116.629 6.729 118.777 4.087 121.64 2.733ZM115.744 12.013V11.701C116.187 11.714 121.158 11.779 126.274 10.243C126.573 10.816 126.846 11.401 127.106 11.987C126.976 12.026 126.833 12.065 126.703 12.104C121.419 13.809 118.607 18.468 118.373 18.859C116.68 16.9805 115.744 14.5415 115.744 12.013V12.013ZM126 22.256C123.722 22.2596 121.509 21.499 119.714 20.096C119.896 19.718 121.978 15.709 127.757 13.692C127.783 13.679 127.797 13.679 127.822 13.666C129.267 17.401 129.852 20.538 130.009 21.436C128.772 21.97 127.419 22.256 126 22.256ZM131.714 20.499C131.61 19.874 131.063 16.881 129.722 13.197C132.937 12.69 135.748 13.523 136.1 13.64C135.657 16.49 134.017 18.95 131.714 20.499Z" fill="black"/>
</svg>
