<svg width="101" height="101" viewBox="0 0 101 101" fill="none" xmlns="http://www.w3.org/2000/svg">
<path d="M29.4583 71.5417C31.6906 71.5417 33.8314 70.655 35.4098 69.0765C36.9882 67.4981 37.875 65.3573 37.875 63.125C37.875 60.8928 36.9882 58.752 35.4098 57.1736C33.8314 55.5951 31.6906 54.7084 29.4583 54.7084C27.2261 54.7084 25.0853 55.5951 23.5068 57.1736C21.9284 58.752 21.0417 60.8928 21.0417 63.125C21.0417 65.3573 21.9284 67.4981 23.5068 69.0765C25.0853 70.655 27.2261 71.5417 29.4583 71.5417Z" stroke="#4ECB71" stroke-width="4" stroke-miterlimit="1.5" stroke-linecap="round" stroke-linejoin="round"/>
<path d="M19.5687 63.125H10.9417C10.272 63.125 9.62974 62.859 9.15621 62.3855C8.68268 61.912 8.41666 61.2697 8.41666 60.6V19.3584C8.41666 18.6887 8.68268 18.0465 9.15621 17.5729C9.62974 17.0994 10.272 16.8334 10.9417 16.8334H56.3917C57.0613 16.8334 57.7036 17.0994 58.1771 17.5729C58.6506 18.0465 58.9167 18.6887 58.9167 19.3584V63.125H38.0854M58.9167 29.4584H82.5254C83.0135 29.4585 83.4911 29.6001 83.9003 29.866C84.3096 30.1318 84.6331 30.5106 84.8316 30.9565L90.2603 43.1733C90.4038 43.4952 90.4784 43.8435 90.4792 44.196V50.5" stroke="#4ECB71" stroke-width="4" stroke-linecap="round"/>
<path d="M71.5417 96.7917C71.5417 96.7917 75.3292 83.6701 84.1667 75.75" stroke="#4ECB71" stroke-width="4" stroke-linecap="round" stroke-linejoin="round"/>
<path d="M83.3334 90.1636L82.7695 90.2141C79.3453 90.5333 75.9338 89.4849 73.2799 87.2978C70.6259 85.1106 68.9451 81.9623 68.6042 78.5401C68.436 76.8505 68.6036 75.1444 69.0973 73.5198C69.591 71.8952 70.4011 70.3843 71.481 69.074C72.5609 67.7637 73.8893 66.6799 75.3897 65.885C76.89 65.0901 78.5328 64.5998 80.2234 64.4422L92.7895 63.2639C93.1772 63.2275 93.5634 63.3461 93.8639 63.5937C94.1644 63.8413 94.3546 64.1979 94.3929 64.5853L95.466 75.4428C95.6418 77.2068 95.4669 78.9882 94.9513 80.6844C94.4358 82.3805 93.5898 83.9579 92.4621 85.3258C91.3344 86.6937 89.9473 87.8249 88.3806 88.6545C86.8139 89.484 85.0986 89.9997 83.3334 90.1636Z" stroke="#4ECB71" stroke-width="4" stroke-linecap="round" stroke-linejoin="round"/>
</svg>
